<mxfile host="drawio-plugin" modified="2021-11-13T07:19:12.894Z" agent="5.0 (Macintosh; Intel Mac OS X 12_0_1) AppleWebKit/537.36 (KHTML, like Gecko) Chrome/89.0.4389.114 Safari/537.36" version="14.7.4" etag="Y-CIFuYMk9tcrZ0jRUFQ" type="embed"><diagram id="H4ZPAgSG03H9r4rwDp48" name="Page-1"><mxGraphModel dx="645" dy="504" grid="1" gridSize="10" guides="1" tooltips="1" connect="1" arrows="1" fold="1" page="1" pageScale="1" pageWidth="850" pageHeight="1100" math="0" shadow="0"><root><mxCell id="0"/><mxCell id="1" parent="0"/><mxCell id="16" value="" style="shape=parallelogram;perimeter=parallelogramPerimeter;whiteSpace=wrap;html=1;fixedSize=1;size=65;" vertex="1" parent="1"><mxGeometry x="310" y="200" width="310" height="90" as="geometry"/></mxCell><mxCell id="14" value="" style="group;glass=0;rounded=0;sketch=0;shadow=0;" vertex="1" connectable="0" parent="1"><mxGeometry x="300" y="330" width="370" height="125" as="geometry"/></mxCell><mxCell id="13" value="" style="shape=parallelogram;perimeter=parallelogramPerimeter;whiteSpace=wrap;html=1;fixedSize=1;size=100;rounded=0;shadow=0;sketch=0;" vertex="1" parent="14"><mxGeometry x="-80" y="-20" width="440" height="135" as="geometry"/></mxCell><mxCell id="3" value="Component" style="shape=parallelogram;perimeter=parallelogramPerimeter;whiteSpace=wrap;html=1;fixedSize=1;fontSize=10;" vertex="1" parent="14"><mxGeometry x="80" width="80" height="30" as="geometry"/></mxCell><mxCell id="4" value="" style="shape=parallelogram;perimeter=parallelogramPerimeter;whiteSpace=wrap;html=1;fixedSize=1;" vertex="1" parent="14"><mxGeometry y="50" width="80" height="30" as="geometry"/></mxCell><mxCell id="5" value="" style="shape=parallelogram;perimeter=parallelogramPerimeter;whiteSpace=wrap;html=1;fixedSize=1;" vertex="1" parent="14"><mxGeometry x="100" y="70" width="80" height="30" as="geometry"/></mxCell><mxCell id="6" value="" style="shape=parallelogram;perimeter=parallelogramPerimeter;whiteSpace=wrap;html=1;fixedSize=1;" vertex="1" parent="14"><mxGeometry x="190" y="10" width="80" height="30" as="geometry"/></mxCell><mxCell id="7" value="" style="endArrow=classic;html=1;entryX=0.6;entryY=0.033;entryDx=0;entryDy=0;entryPerimeter=0;" edge="1" parent="14" source="3" target="5"><mxGeometry width="50" height="50" relative="1" as="geometry"><mxPoint x="100" y="130" as="sourcePoint"/><mxPoint x="140" y="100" as="targetPoint"/></mxGeometry></mxCell><mxCell id="8" value="" style="endArrow=classic;html=1;" edge="1" parent="14" source="3" target="4"><mxGeometry width="50" height="50" relative="1" as="geometry"><mxPoint x="156.66666666666663" y="30" as="sourcePoint"/><mxPoint x="163.03999999999996" y="79.00999999999999" as="targetPoint"/></mxGeometry></mxCell><mxCell id="9" value="" style="endArrow=classic;html=1;" edge="1" parent="14" source="5" target="6"><mxGeometry width="50" height="50" relative="1" as="geometry"><mxPoint x="100" y="130" as="sourcePoint"/><mxPoint x="150" y="80" as="targetPoint"/></mxGeometry></mxCell><mxCell id="42" value="Relation" style="text;html=1;strokeColor=none;fillColor=none;align=center;verticalAlign=middle;whiteSpace=wrap;rounded=0;shadow=0;glass=0;sketch=0;fontSize=10;" vertex="1" parent="14"><mxGeometry x="150" y="30" width="40" height="20" as="geometry"/></mxCell><mxCell id="17" value="" style="ellipse;whiteSpace=wrap;html=1;rotation=90;direction=south;" vertex="1" parent="1"><mxGeometry x="413.5" y="211.25" width="25" height="55" as="geometry"/></mxCell><mxCell id="18" value="" style="ellipse;whiteSpace=wrap;html=1;rotation=90;direction=south;" vertex="1" parent="1"><mxGeometry x="491.5" y="223.75" width="25" height="55" as="geometry"/></mxCell><mxCell id="22" value="" style="shape=internalStorage;whiteSpace=wrap;html=1;backgroundOutline=1;" vertex="1" parent="1"><mxGeometry x="290" y="470" width="80" height="80" as="geometry"/></mxCell><mxCell id="25" value="" style="shape=internalStorage;whiteSpace=wrap;html=1;backgroundOutline=1;" vertex="1" parent="1"><mxGeometry x="300" y="480" width="80" height="80" as="geometry"/></mxCell><mxCell id="26" value="Rational&lt;br&gt;Tables" style="shape=internalStorage;whiteSpace=wrap;html=1;backgroundOutline=1;" vertex="1" parent="1"><mxGeometry x="310" y="490" width="80" height="80" as="geometry"/></mxCell><mxCell id="27" value="Documents" style="shape=cylinder3;whiteSpace=wrap;html=1;boundedLbl=1;backgroundOutline=1;size=15;" vertex="1" parent="1"><mxGeometry x="530" y="480" width="80" height="80" as="geometry"/></mxCell><mxCell id="28" value="" style="shape=flexArrow;endArrow=classic;startArrow=classic;html=1;entryX=0.5;entryY=1;entryDx=0;entryDy=0;exitX=0.138;exitY=0.013;exitDx=0;exitDy=0;exitPerimeter=0;" edge="1" parent="1" source="25" target="4"><mxGeometry width="100" height="100" relative="1" as="geometry"><mxPoint x="390" y="470" as="sourcePoint"/><mxPoint x="490" y="370" as="targetPoint"/></mxGeometry></mxCell><mxCell id="29" value="" style="shape=flexArrow;endArrow=classic;startArrow=classic;html=1;entryX=0.5;entryY=1;entryDx=0;entryDy=0;exitX=0.5;exitY=0;exitDx=0;exitDy=0;exitPerimeter=0;shadow=0;" edge="1" parent="1" source="27"><mxGeometry width="100" height="100" relative="1" as="geometry"><mxPoint x="535.04" y="450" as="sourcePoint"/><mxPoint x="526" y="370" as="targetPoint"/></mxGeometry></mxCell><mxCell id="33" value="" style="shape=flexArrow;endArrow=classic;startArrow=classic;html=1;" edge="1" parent="1" source="26" target="5"><mxGeometry width="100" height="100" relative="1" as="geometry"><mxPoint x="359.03999999999996" y="490" as="sourcePoint"/><mxPoint x="350" y="410" as="targetPoint"/></mxGeometry></mxCell><mxCell id="35" value="" style="endArrow=classic;html=1;shadow=0;" edge="1" parent="1" target="17"><mxGeometry relative="1" as="geometry"><mxPoint x="376" y="140" as="sourcePoint"/><mxPoint x="476" y="140" as="targetPoint"/></mxGeometry></mxCell><mxCell id="36" value="" style="shape=message;html=1;outlineConnect=0;" vertex="1" parent="35"><mxGeometry width="20" height="14" relative="1" as="geometry"><mxPoint x="-10" y="-7" as="offset"/></mxGeometry></mxCell><mxCell id="39" value="" style="curved=1;endArrow=none;html=1;shadow=0;endFill=0;startArrow=classic;startFill=1;dashed=1;" edge="1" parent="1" source="3" target="17"><mxGeometry width="50" height="50" relative="1" as="geometry"><mxPoint x="426" y="335" as="sourcePoint"/><mxPoint x="420" y="330" as="targetPoint"/><Array as="points"><mxPoint x="390" y="335"/><mxPoint x="310" y="320"/></Array></mxGeometry></mxCell><mxCell id="40" value="Model Graph" style="text;html=1;strokeColor=none;fillColor=none;align=center;verticalAlign=middle;whiteSpace=wrap;rounded=0;shadow=0;glass=0;sketch=0;" vertex="1" parent="1"><mxGeometry x="250" y="320" width="40" height="20" as="geometry"/></mxCell><mxCell id="41" value="Ingress" style="text;html=1;strokeColor=none;fillColor=none;align=center;verticalAlign=middle;whiteSpace=wrap;rounded=0;shadow=0;glass=0;sketch=0;" vertex="1" parent="1"><mxGeometry x="300" y="203.75" width="40" height="20" as="geometry"/></mxCell><mxCell id="43" value="User Interaction" style="text;html=1;strokeColor=none;fillColor=none;align=center;verticalAlign=middle;whiteSpace=wrap;rounded=0;shadow=0;glass=0;sketch=0;" vertex="1" parent="1"><mxGeometry x="380" y="140" width="100" height="20" as="geometry"/></mxCell><mxCell id="44" value="Domain Model Definition" style="html=1;verticalAlign=top;labelPosition=center;verticalLabelPosition=bottom;align=center;spacingTop=-6;fontSize=11;fontStyle=1;shape=mxgraph.gcp2.hexIcon;prIcon=automl_natural_language;rounded=0;shadow=0;glass=0;sketch=0;" vertex="1" parent="1"><mxGeometry x="80" y="340" width="96" height="78.5" as="geometry"/></mxCell><mxCell id="45" value="" style="shape=flexArrow;endArrow=classic;html=1;shadow=0;fontSize=10;" edge="1" parent="1" target="13"><mxGeometry width="50" height="50" relative="1" as="geometry"><mxPoint x="180" y="380" as="sourcePoint"/><mxPoint x="350" y="330" as="targetPoint"/></mxGeometry></mxCell><mxCell id="47" value="Parse" style="text;html=1;strokeColor=none;fillColor=none;align=center;verticalAlign=middle;whiteSpace=wrap;rounded=0;shadow=0;glass=0;sketch=0;" vertex="1" parent="1"><mxGeometry x="190" y="350" width="40" height="20" as="geometry"/></mxCell><mxCell id="48" value="Runtime Data Loader" style="text;html=1;strokeColor=none;fillColor=none;align=center;verticalAlign=middle;whiteSpace=wrap;rounded=0;shadow=0;glass=0;sketch=0;" vertex="1" parent="1"><mxGeometry x="413.5" y="470" width="76.5" height="20" as="geometry"/></mxCell><mxCell id="49" value="Data Service API" style="text;html=1;strokeColor=none;fillColor=none;align=center;verticalAlign=middle;whiteSpace=wrap;rounded=0;shadow=0;glass=0;sketch=0;fontSize=10;" vertex="1" parent="1"><mxGeometry x="440" y="211.25" width="90" height="20" as="geometry"/></mxCell></root></mxGraphModel></diagram></mxfile>